<svg width="800" height="800" viewBox="0 0 24 24" fill="none" xmlns="http://www.w3.org/2000/svg"><path fill-rule="evenodd" clip-rule="evenodd" d="M7.1 5H3a1 1 0 0 0 0 2h1.06l.825 13.187A3 3 0 0 0 7.879 23h8.242a3 3 0 0 0 2.994-2.813L19.94 7H21a1 1 0 1 0 0-2h-4.1a5.002 5.002 0 0 0-9.8 0zm2.07 0h5.66a3.001 3.001 0 0 0-5.66 0zm8.766 2H6.064l.817 13.062a1 1 0 0 0 .998.938h8.242a1 1 0 0 0 .998-.938L17.936 7zm-3.657 3.01a1 1 0 0 1 .928 1.067l-.419 5.985a1 1 0 1 1-1.995-.14l.419-5.984a1 1 0 0 1 1.067-.928zm-4.558 0a1 1 0 0 1 1.067.928l.419 5.985a1 1 0 0 1-1.995.14l-.419-5.986a1 1 0 0 1 .928-1.067z" fill="#0F1729"/></svg>